<svg data-v-2cb57da0="" version="1.0" xmlns="http://www.w3.org/2000/svg" xmlns:xlink="http://www.w3.org/1999/xlink"
    width="100%" height="100%" viewBox="0 0 340.000000 250.000000" preserveAspectRatio="xMidYMid meet"
    color-interpolation-filters="sRGB" style="margin: auto;">
    <rect data-v-2cb57da0="" x="0" y="0" width="100%" height="100%" fill="#fff" fill-opacity="1" class="background">
    </rect>
    <rect data-v-2cb57da0="" x="0" y="0" width="100%" height="100%" fill="url(#watermark)" fill-opacity="1"
        class="watermarklayer"></rect>
    <g data-v-2cb57da0="" fill="#1c80a9" class="icon-text-wrapper icon-svg-group iconsvg"
        transform="translate(80.80500030517578,70.89533996582031)">
        <g class="iconsvg-imagesvg" transform="translate(59.19499969482422,0)">
            <g>
                <rect fill="#1c80a9" fill-opacity="0" stroke-width="2" x="0" y="0" width="60" height="66.37682121403206"
                    class="image-rect"></rect>

                <svg x="0" y="0" width="60" height="66.37682121403206" filtersec="colorsb2955349674"
                    class="image-svg-svg primary"><svg xmlns="http://www.w3.org/2000/svg"
                        viewBox="16.09000015258789 11 869.5800170898438 962">
                        <path opacity=".5" fill="#8DD7F7"
                            d="M156.35 795.22l431.8-245.36-115.56-70.71-310.15 183.82-6.09-3.47z"></path>
                        <path fill="#1C80A9" d="M156.35 337.76v469.38L16.47 736.46V261.41z"></path>
                        <path fill="#196CAC" d="M447.92 831.02L145.93 674.94 26.99 738.85l424.9 232.43 2.07-1.2z">
                        </path>
                        <path opacity=".5" fill="#8DD7F7"
                            d="M885.67 237.26L440.01 11 323.69 81.76l428.85 233.8 3.03-1.97z"></path>
                        <path opacity=".5" fill="#8DD7F7"
                            d="M451 17.66c-2.22-1.53-6.56-3.87-8.67-5.47-.02-.03-1.15-.98 2.11.75.09.05-4.34-.99-4.43-1.03L320.09 85.65l-3.33 489.62 139.88-79.71V20.62c-1.99-.82-3.94-1.79-5.64-2.96z">
                        </path>
                        <path fill="#26A9E0" d="M448.76 498.48l436.91-260.09-131.02-66.16-299.72 186.94-6.17-3.63z">
                        </path>
                        <path opacity=".5" fill="#8DD7F7"
                            d="M158.76 321.04L568.57 76.75 441.18 11.2 144.96 190.38l-12 6.29 6 113.65c8.12 1.87 14.71 5.67 19.8 10.72zM885.67 727.42V238.4l-136.56 81.27-3.33 487.47z">
                        </path>
                        <path opacity=".5" fill="#8DD7F7"
                            d="M453.86 971.94l431.81-245.39-119.62-70.3-306.09 183.41-6.1-3.44z"></path>
                        <path opacity=".5" fill="#8DD7F7"
                            d="M771.7 791.31l113.97-63.88L475.63 483.5 352.8 540.05l406.68 258.22c4.21-3.81 6.19-5.13 12.22-6.96z">
                        </path>
                        <path opacity=".5" fill="#8DD7F7" d="M593.74 894.48V411.79l-136.54 81.7L453.86 973z"></path>
                        <path fill="#26A9E0" d="M448.67 354.51L137.21 194.27 16.09 262.41 453.6 501.98l3.04-1.95z">
                        </path>
                        <path fill="#249BCD" d="M456.27 493.41l.37 477.87-139.88-73.13V425.54z"></path>
                    </svg></svg>
                <!---->
            </g>
        </g>
        <g transform="translate(0,73.37682342529297)">
            <g data-gra="path-name" fill-rule="" class="tp-name iconsvg-namesvg" transform="translate(0,0)">
                <g transform="scale(1)">
                    <g>
                        <path
                            d="M15.14-14.92L4.93-14.95 4.9-9.08 13.96-9.35 13.69-6.38 4.88-6.46 4.8 1.58 2.3 1.82 1.98-14.95 1.37-14.95 1.07-17.55 15.41-17.84 15.14-14.92ZM20.68-17.74L20.52 1.21 17.87 1.58 17.55-17.95 20.68-17.74ZM37.59 0.05L35.31 1.85 33.68-0.13 28.78 1.93 22.29-0.83 22.45-12.49 25.19-12.83 25.21-2.68 28.72-1.31 33.14-3.13 33.2-12.57 36.17-12.86 36.2-1.42 37.59 0.05ZM48.44-10.05L44.67-10.07 44.37-3.05 48.31-1.13 47.24 1.71 41.77-1.1 41.74-10.1 38.96-10.13 38.66-12.7 41.74-12.81 41.74-16.32 44.93-16.21 44.8-12.89 48.74-13.02 48.44-10.05ZM59.59-10.05L55.81-10.07 55.52-3.05 59.46-1.13 58.38 1.71 52.92-1.1 52.89-10.1 50.1-10.13 49.81-12.7 52.89-12.81 52.89-16.32 56.08-16.21 55.95-12.89 59.88-13.02 59.59-10.05ZM73.58-4.18L76.07-2.3 72.32 1.61 64.79 1.55 60.96-3.08 61.22-8.71 65.67-12.86 71.46-12.86 75.64-8.71 75.26-5.63 67.14-4.02 66.56-6.62 72.56-7.77 70.36-10.18 67.01-10.24 63.93-7.05 63.9-4.07 66.39-1.15 70.92-1.37 73.58-4.18ZM84.51-13.45L90.8-10.85 89.04-8.71 84.59-10.4 80.25-8.73 80.19 1.47 77.17 1.85 77.14-12.19 80.27-12.08 80.27-11.79 84.51-13.45ZM112.88-12.49L110.36-14.84 106.53-14.9 103.45-11.41 103.42-4.72 105.92-1.53 110.42-1.74 113.1-4.82 115.59-2.79 111.81 1.47 104.28 1.45 100.45-3.62 100.74-13.24 105.19-17.76 111.27-17.76 114.76-14.6 112.88-12.49ZM134.4-0.03L132.15 1.85 130.32-0.43 125.93 1.82 120.06 0.29 117.2-6.06 120.84-12.06 126.98-12.86 132.58-9.81 132.49-2.12 134.4-0.03ZM122.37-2.17L125.93-1.26 129.76-3.16 129.79-7.93 126.6-9.59 122.53-9.16 120.63-5.84 122.37-2.17ZM148.73-0.13L145.17 1.88 139.97 1.9 135.47-0.7 137.32-2.68 140.8-0.56 144.04-0.56 145.86-1.53 145.68-2.97 137.4-5.89 136.97-9.46 139.86-12.22 145.65-12.27 148.84-9.46 146.62-8.17 144.42-10.07 141.63-10.1 140.29-8.82 140.4-7.37 148.25-4.53 148.73-0.13ZM162.53-4.18L165.02-2.3 161.27 1.61 153.74 1.55 149.91-3.08 150.18-8.71 154.63-12.86 160.41-12.86 164.59-8.71 164.22-5.63 156.1-4.02 155.51-6.62 161.51-7.77 159.32-10.18 155.97-10.24 152.88-7.05 152.86-4.07 155.35-1.15 159.88-1.37 162.53-4.18ZM179.36-0.13L175.79 1.88 170.6 1.9 166.09-0.7 167.94-2.68 171.43-0.56 174.67-0.56 176.49-1.53 176.3-2.97 168.02-5.89 167.59-9.46 170.49-12.22 176.28-12.27 179.46-9.46 177.24-8.17 175.04-10.07 172.26-10.1 170.92-8.82 171.02-7.37 178.87-4.53 179.36-0.13Z"
                            transform="translate(-1.0700000524520874, 17.950000762939453)"></path>
                    </g>
                    <!---->
                    <!---->
                    <!---->
                    <!---->
                    <!---->
                    <!---->
                    <!---->
                </g>
            </g>
            <g data-gra="path-slogan" fill-rule="" class="tp-slogan iconsvg-slogansvg" fill="#1c80a9"
                transform="translate(5.000007629394531,25.880001068115234)">
                <rect x="0" height="1" y="3.9750003814697266" width="12.334999084472656"></rect>
                <rect height="1" y="3.9750003814697266" width="12.334999084472656" x="156.05500030517578"></rect>
                <g transform="translate(15.334999084472656,0)">
                    <g transform="scale(1)">
                        <path
                            d="M9.14-8.58L9.14 0L8.02 0L8.02-5.06Q8.02-5.77 8.02-7.22L8.02-7.22L5.58 0L4.41 0L2.02-7.22L1.97-7.22Q1.97-6.70 2.02-5.67L2.02-5.67Q2.02-5.16 2.02-5.06L2.02-5.06L2.02 0L0.84 0L0.84-8.58L2.53-8.58L5.02-1.31L7.45-8.58L9.14-8.58ZM16.50 0L15.66-2.48L12.19-2.48L11.30 0L10.13 0L13.36-8.58L14.67-8.58L17.77 0L16.50 0ZM13.92-7.31L12.56-3.52L15.23-3.52L13.97-7.31L13.92-7.31ZM21.33-4.31L19.97-3.05L19.97 0L18.80 0L18.80-8.58L19.97-8.58L19.97-4.41L24.14-8.58L25.78-8.58L22.17-5.11L25.88 0L24.33 0L21.33-4.31ZM26.95-8.58L28.13-8.58L28.13 0L26.95 0L26.95-8.58ZM31.50-8.58L35.81-1.64L35.81-8.58L36.94-8.58L36.94 0L35.63 0L31.27-6.94L31.22-6.94L31.22 0L30.09 0L30.09-8.58L31.50-8.58ZM45.14-3.61L42.52-3.61L42.52-4.59L46.27-4.59L46.27 0L45.52 0L45.23-1.08Q44.25 0.09 42.42 0.14L42.42 0.14Q40.69 0.14 39.75-0.75L39.75-0.75Q38.34-2.06 38.39-4.36L38.39-4.36Q38.72-8.63 42.47-8.81L42.47-8.81Q45.66-8.63 46.13-6L46.13-6L45-6Q44.53-7.78 42.42-7.83L42.42-7.83Q39.75-7.64 39.61-4.31L39.61-4.31Q39.61-0.75 42.47-0.75L42.47-0.75Q43.50-0.75 44.25-1.31L44.25-1.31Q45.19-2.06 45.14-3.61L45.14-3.61ZM51.38-8.58L52.55-8.58L52.55-1.03L56.91-1.03L56.91 0L51.38 0L51.38-8.58ZM59.34-1.03L64.50-1.03L64.50 0L58.17 0L58.17-8.58L64.41-8.58L64.41-7.59L59.34-7.59L59.34-4.92L64.03-4.92L64.03-3.89L59.34-3.89L59.34-1.03ZM71.67 0L70.83-2.48L67.36-2.48L66.47 0L65.30 0L68.53-8.58L69.84-8.58L72.94 0L71.67 0ZM69.09-7.31L67.73-3.52L70.41-3.52L69.14-7.31L69.09-7.31ZM78.09-3.70L75.28-3.70L75.28 0L74.11 0L74.11-8.58L78.09-8.58Q80.95-8.58 80.95-6.28L80.95-6.28Q80.95-4.88 79.73-4.22L79.73-4.22Q80.77-3.94 80.77-2.58L80.77-2.58L80.86-1.03Q80.81-0.38 81.28-0.19L81.28-0.19L81.28 0L79.83 0Q79.69-0.61 79.64-2.16L79.64-2.16Q79.69-3.70 78.09-3.70L78.09-3.70ZM78.19-7.64L75.28-7.64L75.28-4.69L78-4.69Q79.73-4.69 79.73-6.19L79.73-6.19Q79.73-7.64 78.19-7.64L78.19-7.64ZM84-8.58L88.31-1.64L88.31-8.58L89.44-8.58L89.44 0L88.13 0L83.77-6.94L83.72-6.94L83.72 0L82.59 0L82.59-8.58L84-8.58ZM91.41-8.58L92.58-8.58L92.58 0L91.41 0L91.41-8.58ZM95.95-8.58L100.27-1.64L100.27-8.58L101.39-8.58L101.39 0L100.08 0L95.72-6.94L95.67-6.94L95.67 0L94.55 0L94.55-8.58L95.95-8.58ZM109.59-3.61L106.97-3.61L106.97-4.59L110.72-4.59L110.72 0L109.97 0L109.69-1.08Q108.70 0.09 106.88 0.14L106.88 0.14Q105.14 0.14 104.20-0.75L104.20-0.75Q102.80-2.06 102.84-4.36L102.84-4.36Q103.17-8.63 106.92-8.81L106.92-8.81Q110.11-8.63 110.58-6L110.58-6L109.45-6Q108.98-7.78 106.88-7.83L106.88-7.83Q104.20-7.64 104.06-4.31L104.06-4.31Q104.06-0.75 106.92-0.75L106.92-0.75Q107.95-0.75 108.70-1.31L108.70-1.31Q109.64-2.06 109.59-3.61L109.59-3.61ZM121.36-3.89L117.14-3.89L117.14 0L115.97 0L115.97-8.58L121.92-8.58L121.92-7.59L117.14-7.59L117.14-4.92L121.36-4.92L121.36-3.89ZM128.77-3.19L128.77-8.58L129.94-8.58L129.94-3.05Q129.80 0.05 126.42 0.14L126.42 0.14Q123.28 0.05 123.14-2.86L123.14-2.86L123.14-8.58L124.31-8.58L124.31-3.19Q124.36-0.84 126.47-0.80L126.47-0.80Q128.77-0.84 128.77-3.19L128.77-3.19ZM133.13-8.58L137.44-1.64L137.44-8.58L138.56-8.58L138.56 0L137.25 0L132.89-6.94L132.84-6.94L132.84 0L131.72 0L131.72-8.58L133.13-8.58Z"
                            transform="translate(-0.84375, 8.8125)"></path>
                    </g>
                </g>
            </g>
        </g>
    </g>
    <defs v-gra="od"></defs>
</svg>